<?xml version="1.0" encoding="UTF-8" standalone="no"?>
<!-- Created with Inkscape (http://www.inkscape.org/) -->

<svg
   width="140mm"
   height="105mm"
   viewBox="0 0 140 105"
   version="1.1"
   id="svg1"
   inkscape:version="1.4.3 (0d15f75042, 2025-12-25)"
   sodipodi:docname="new_logov2_w_resize.svg"
   inkscape:export-filename="new_logov2_w_resize.png"
   inkscape:export-xdpi="96"
   inkscape:export-ydpi="96"
   xmlns:inkscape="http://www.inkscape.org/namespaces/inkscape"
   xmlns:sodipodi="http://sodipodi.sourceforge.net/DTD/sodipodi-0.dtd"
   xmlns="http://www.w3.org/2000/svg"
   xmlns:svg="http://www.w3.org/2000/svg">
  <sodipodi:namedview
     id="namedview1"
     pagecolor="#ffffff"
     bordercolor="#111111"
     borderopacity="1"
     inkscape:showpageshadow="0"
     inkscape:pageopacity="0"
     inkscape:pagecheckerboard="1"
     inkscape:deskcolor="#d1d1d1"
     inkscape:document-units="px"
     inkscape:zoom="1"
     inkscape:cx="94.5"
     inkscape:cy="259.5"
     inkscape:window-width="1920"
     inkscape:window-height="1043"
     inkscape:window-x="0"
     inkscape:window-y="0"
     inkscape:window-maximized="1"
     inkscape:current-layer="layer1" />
  <defs
     id="defs1">
    <marker
       style="overflow:visible"
       id="RoundedArrow"
       refX="0"
       refY="0"
       orient="auto-start-reverse"
       inkscape:stockid="Rounded arrow"
       markerWidth="0.5"
       markerHeight="0.5"
       viewBox="0 0 1 1"
       inkscape:isstock="true"
       inkscape:collect="always"
       preserveAspectRatio="xMidYMid">
      <path
         transform="scale(0.7)"
         d="m -0.21114562,-4.1055728 6.42229122,3.21114561 a 1,1 90 0 1 0,1.78885438 L -0.21114562,4.1055728 A 1.236068,1.236068 31.717474 0 1 -2,3 v -6 a 1.236068,1.236068 148.28253 0 1 1.78885438,-1.1055728 z"
         style="fill:context-stroke;fill-rule:evenodd;stroke:none"
         id="path8" />
    </marker>
    <inkscape:path-effect
       effect="fillet_chamfer"
       id="path-effect12"
       is_visible="true"
       lpeversion="1"
       nodesatellites_param="F,0,0,1,0,0,0,1 @ F,0,0,1,0,0,0,1 @ F,0,0,1,0,0,0,1 @ F,0,0,1,0,0,0,1"
       radius="0"
       unit="px"
       method="auto"
       mode="F"
       chamfer_steps="1"
       flexible="false"
       use_knot_distance="true"
       apply_no_radius="true"
       apply_with_radius="true"
       only_selected="false"
       hide_knots="false" />
    <inkscape:path-effect
       effect="fillet_chamfer"
       id="path-effect11"
       is_visible="true"
       lpeversion="1"
       nodesatellites_param="F,0,0,1,0,0,0,1 @ F,0,0,1,0,0,0,1 @ F,0,0,1,0,0,0,1 @ F,0,0,1,0,0,0,1"
       radius="0"
       unit="px"
       method="auto"
       mode="F"
       chamfer_steps="1"
       flexible="false"
       use_knot_distance="true"
       apply_no_radius="true"
       apply_with_radius="true"
       only_selected="false"
       hide_knots="false" />
  </defs>
  <g
     inkscape:label="Layer 1"
     inkscape:groupmode="layer"
     id="layer1"
     transform="translate(-44.141544,-80.05338)">
    <text
       xml:space="preserve"
       style="font-size:29.698px;line-height:0;text-align:center;writing-mode:lr-tb;direction:ltr;text-anchor:middle;fill:#000000;stroke-width:2.33842;stroke-dasharray:none"
       x="109.33492"
       y="176.83516"
       id="text1"
       transform="scale(1.0173693,0.98292725)"><tspan
         style="font-style:normal;font-variant:normal;font-weight:normal;font-stretch:normal;font-size:30.7302px;line-height:0;font-family:Outfit;-inkscape-font-specification:Outfit;stroke-width:2.33842"
         sodipodi:role="line"
         id="tspan9"
         x="109.33492"
         y="176.83516" /><tspan
         sodipodi:role="line"
         style="line-height:0;stroke-width:2.33842"
         x="109.33492"
         y="176.83516"
         id="tspan2" /></text>
    <text
       xml:space="preserve"
       style="font-size:25.4px;writing-mode:lr-tb;direction:ltr;fill:#000000;stroke-width:0.25;stroke-dasharray:none"
       x="49.440292"
       y="174.47408"
       id="text3"><tspan
         sodipodi:role="line"
         id="tspan3"
         style="stroke-width:0.25"
         x="49.440292"
         y="174.47408" /></text>
    <g
       id="g4"
       transform="matrix(0.70850997,0,0,0.72551746,44.928523,37.928087)">
      <g
         id="g5">
        <g
           id="g6"
           transform="translate(-1.3229167,-2.9104167)">
          <g
             id="g7">
            <circle
               style="fill:#5dcaa5;fill-opacity:1;stroke-width:0.264583"
               id="path1-3"
               cx="81.295578"
               cy="91.834099"
               r="8" />
            <rect
               style="fill:#2a4a3e;fill-opacity:1;stroke-width:0.269914;stroke-dasharray:none"
               id="rect1"
               width="16"
               height="16"
               x="65.234276"
               y="109.03075"
               rx="3.7349825" />
            <circle
               style="fill:#a8d5c2;fill-opacity:1;stroke-width:0.265007;stroke-dasharray:none"
               id="path1-3-0"
               cx="59.499996"
               cy="71.221344"
               r="8" />
            <circle
               style="fill:#5dcaa5;fill-opacity:1;stroke-width:0.264583"
               id="path1-3-9"
               cx="43.377087"
               cy="104.37272"
               r="8" />
            <circle
               style="fill:#d4ede6;fill-opacity:1;stroke-width:0.264583"
               id="path1-3-7"
               cx="52.403118"
               cy="139.36916"
               r="8" />
          </g>
        </g>
      </g>
    </g>
    <g
       id="g3"
       transform="matrix(0.71398085,0,0,0.74279346,36.158875,39.192381)">
      <rect
         style="fill:#2a4a3e;fill-opacity:1;stroke-width:0.269914;stroke-dasharray:none"
         id="rect1-9"
         width="15"
         height="15"
         x="140.22916"
         y="121.70834"
         rx="3.7349825" />
      <rect
         style="fill:#5dcaa5;fill-opacity:1;stroke-width:0.269914;stroke-dasharray:none"
         id="rect1-7"
         width="15"
         height="15"
         x="140.49374"
         y="101.07084"
         rx="3.7349825" />
      <rect
         style="fill:#a8d5c2;fill-opacity:1;stroke-width:0.270513;stroke-dasharray:none"
         id="rect1-3"
         width="15"
         height="15"
         x="140.75833"
         y="80.433342"
         rx="3.7349825" />
      <rect
         style="fill:#d4ede6;fill-opacity:1;stroke-width:0.27;stroke-dasharray:none"
         id="rect1-32"
         width="15"
         height="15"
         x="141.02292"
         y="59.795837"
         rx="3.7349825" />
    </g>
    <path
       style="fill:none;stroke:#5dcaa5;stroke-width:3.952;stroke-dasharray:none;stroke-opacity:1;marker-start:url(#RoundedArrow)"
       id="path9"
       d="M 111.68559,85.337783 A 26.771,30.797094 0 0 1 126.5977,115.9698 26.771,30.797094 0 0 1 106.8788,142.76574"
       sodipodi:type="arc"
       sodipodi:arc-type="arc"
       sodipodi:start="5.1661746"
       sodipodi:end="1.3089969"
       sodipodi:ry="30.797094"
       sodipodi:rx="26.771"
       sodipodi:cy="113.01803"
       sodipodi:cx="99.949951"
       sodipodi:open="true" />
    <text
       xml:space="preserve"
       style="font-style:normal;font-variant:normal;font-weight:normal;font-stretch:normal;font-size:25.4px;line-height:0;font-family:Outfit;-inkscape-font-specification:Outfit;writing-mode:lr-tb;direction:ltr;fill:#d4ede6;fill-opacity:1;stroke:#5dcaa5;stroke-width:3.952;stroke-dasharray:none;stroke-opacity:1"
       x="118.53333"
       y="162.98334"
       id="text12"><tspan
         sodipodi:role="line"
         id="tspan12"
         style="stroke-width:3.952"
         x="118.53333"
         y="162.98334" /></text>
    <text
       xml:space="preserve"
       style="font-style:normal;font-variant:normal;font-weight:normal;font-stretch:normal;font-size:25.4px;line-height:0;font-family:Outfit;-inkscape-font-specification:Outfit;writing-mode:lr-tb;direction:ltr;fill:#d4ede6;fill-opacity:1;stroke:#5dcaa5;stroke-width:3.952;stroke-dasharray:none;stroke-opacity:1"
       x="97.631248"
       y="181.23958"
       id="text13"><tspan
         sodipodi:role="line"
         id="tspan13"
         style="writing-mode:lr-tb;direction:ltr;stroke-width:3.952"
         x="97.631248"
         y="181.23958" /></text>
    <text
       xml:space="preserve"
       style="font-style:normal;font-variant:normal;font-weight:normal;font-stretch:normal;font-size:25.4px;line-height:0;font-family:Outfit;-inkscape-font-specification:Outfit;writing-mode:lr-tb;direction:ltr;fill:#d4ede6;fill-opacity:1;stroke:#5dcaa5;stroke-width:3.952;stroke-dasharray:none;stroke-opacity:1"
       x="108.21458"
       y="168.01042"
       id="text14"><tspan
         sodipodi:role="line"
         id="tspan14"
         style="stroke-width:3.952"
         x="108.21458"
         y="168.01042" /></text>
    <text
       xml:space="preserve"
       style="font-style:normal;font-variant:normal;font-weight:normal;font-stretch:normal;font-size:25.4px;line-height:0;font-family:Outfit;-inkscape-font-specification:Outfit;writing-mode:lr-tb;direction:ltr;fill:#d4ede6;fill-opacity:1;stroke:#5dcaa5;stroke-width:3.952;stroke-dasharray:none;stroke-opacity:1"
       x="86.783333"
       y="175.41875"
       id="text15"><tspan
         sodipodi:role="line"
         id="tspan15"
         style="stroke-width:3.952"
         x="86.783333"
         y="175.41875" /></text>
    <text
       xml:space="preserve"
       style="font-style:normal;font-variant:normal;font-weight:100;font-stretch:normal;font-size:25.4px;line-height:0.6;font-family:'DM Sans';-inkscape-font-specification:'DM Sans Thin';writing-mode:lr-tb;direction:ltr;fill:#000000;fill-opacity:1;stroke:#000000;stroke-width:3.952;stroke-dasharray:none;stroke-opacity:1"
       x="65.352081"
       y="210.34375"
       id="text17"><tspan
         sodipodi:role="line"
         id="tspan17"
         style="stroke-width:3.952"
         x="65.352081"
         y="210.34375" /></text>
    <g
       id="g20"
       transform="translate(0.52916667,-11.1125)"
       style="fill:#ffffff;stroke-width:2.5999999;stroke-dasharray:none;stroke:#000000;stroke-opacity:1;fill-opacity:1">
      <path
         style="font-weight:100;font-size:25.4px;line-height:0.6;font-family:'DM Sans';-inkscape-font-specification:'DM Sans Thin';white-space:pre;inline-size:130.125;fill:#ffffff;stroke:#000000;stroke-width:2.57026196;stroke-dasharray:none;stroke-opacity:1;fill-opacity:1"
         d="m 56.686059,191.86313 q -2.1082,0 -3.4544,-0.762 -1.3462,-0.762 -1.9812,-2.032 -0.635,-1.2954 -0.6096,-2.8448 h 0.5588 q -0.0254,1.3716 0.508,2.54 0.5588,1.1684 1.7526,1.8796 1.2192,0.7112 3.2004,0.7112 1.8034,0 2.921,-0.5842 1.143,-0.5842 1.6764,-1.5748 0.5334,-0.9906 0.5334,-2.1844 0,-1.4732 -0.6858,-2.3368 -0.6604,-0.889 -1.7272,-1.397 -1.0414,-0.5334 -2.2606,-0.889 -1.2192,-0.381 -2.286,-0.8128 -1.4732,-0.5842 -2.413,-1.4986 -0.9144,-0.9144 -0.9144,-2.4892 0,-1.1176 0.5334,-2.032 0.5588,-0.9398 1.6764,-1.4986 1.1176,-0.5842 2.7686,-0.5842 1.4224,0 2.5654,0.4826 1.143,0.4826 1.8288,1.524 0.6858,1.016 0.6858,2.667 h -0.5588 q 0,-1.5494 -0.6096,-2.4638 -0.5842,-0.9144 -1.6256,-1.2954 -1.016,-0.4064 -2.286,-0.4064 -1.6002,0 -2.5908,0.5334 -0.9652,0.508 -1.397,1.3208 -0.4318,0.8128 -0.4318,1.7526 0,1.27 0.6604,2.032 0.6858,0.762 1.7526,1.2192 1.0668,0.4572 2.286,0.8382 1.2446,0.381 2.3876,0.889 0.889,0.4064 1.6002,0.9906 0.7366,0.5588 1.1684,1.397 0.4318,0.8382 0.4318,2.0574 0,1.3716 -0.635,2.4638 -0.6096,1.0922 -1.8542,1.7526 -1.2446,0.635 -3.175,0.635 z m 12.522212,-0.3048 v -17.78 h 0.508 v 17.3228 h 8.8646 v 0.4572 z m 14.960641,0 6.477,-17.78 h 0.6096 l 6.3754,17.78 h -0.5334 l -6.096,-17.018 h -0.1016 l -6.1976,17.018 z m 2.5146,-6.5024 0.2286,-0.4572 h 8.0264 l 0.2286,0.4572 z m 25.298448,6.8072 q -2.4892,0 -4.3688,-1.143 -1.8542,-1.1684 -2.8702,-3.2258 -1.016,-2.0828 -1.016,-4.826 0,-2.7686 1.016,-4.826 1.016,-2.0574 2.8702,-3.2004 1.8796,-1.1684 4.3688,-1.1684 2.8194,0 4.5212,1.27 1.7272,1.27 2.3114,3.556 h -0.5588 q -0.508,-1.9558 -2.032,-3.1242 -1.524,-1.1938 -4.2418,-1.1938 -2.2606,0 -4.0132,1.0414 -1.7272,1.016 -2.7178,2.9718 -0.9652,1.9304 -0.9652,4.6736 0,2.7178 0.9652,4.6736 0.9906,1.9304 2.7178,2.9718 1.7526,1.0414 4.0132,1.0414 2.667,0 4.2164,-1.2192 1.5748,-1.2446 2.0574,-3.175 h 0.5588 q -0.5842,2.3368 -2.3114,3.6322 -1.7018,1.27 -4.5212,1.27 z m 25.527,-0.3048 v -17.78 h 0.508 v 17.78 z m -11.5824,0 v -17.78 h 0.508 v 17.78 z m 0.1524,-8.8392 v -0.4572 h 11.8364 v 0.4572 z m 23.69822,8.8392 v -17.3228 h -5.4102 v -0.4572 h 11.3284 v 0.4572 h -5.4102 v 17.3228 z m 18.18643,0.3048 q -1.6764,0 -3.048,-0.6604 -1.3462,-0.6858 -2.159,-2.1082 -0.7874,-1.4224 -0.7874,-3.7084 v -11.6078 h 0.508 v 11.5316 q 0,2.159 0.7112,3.5052 0.7366,1.3208 1.9558,1.9304 1.2446,0.6096 2.794,0.6096 1.5748,0 2.794,-0.6096 1.2192,-0.6096 1.905,-1.9304 0.7112,-1.3462 0.7112,-3.5052 v -11.5316 h 0.508 v 11.6078 q 0,2.286 -0.7874,3.7084 -0.762,1.4224 -2.1082,2.1082 -1.3208,0.6604 -2.9972,0.6604 z"
         id="text16"
         transform="matrix(1.0253044,0,0,0.99801959,-6.2850176,-9.6970627)"
         aria-label="S L A C H T U" />
      <path
         d="m 228.09047,-23.541526 -0.254,-4.572 h 0.9652 l -0.3048,4.572 z"
         id="text18"
         style="font-weight:100;font-size:25.4px;line-height:0.6;font-family:'DM Sans';-inkscape-font-specification:'DM Sans Thin';fill:#ffffff;stroke:#000000;stroke-width:2.5999999;stroke-dasharray:none;stroke-opacity:1;fill-opacity:1"
         inkscape:transform-center-x="83.872917"
         inkscape:transform-center-y="27.252083"
         transform="rotate(49.624076)"
         aria-label="'" />
    </g>
  </g>
</svg>
